# xmcd CD database file
#
# Track frame offsets:
#	150
#	19117
#	34177
#	49817
#	62582
#	75212
#	92210
#	105442
#	121235
#	139872
#	151182
#	163640
#	175147
#	187012
#
# Disc length: 2727 seconds
#
# Revision: 0
# Processed by: cddbd v1.4PL0 Copyright (c) Steve Scherf et al.
# Submitted via: CDex 1.50Beta7
#
DISCID=a90aa50e
DTITLE=Sérgio Reis - Sérgio Reis CD 1
DYEAR=1900
DGENRE=Country
TTITLE0=magoa de boiadeiro
TTITLE1=o sino da capelinha
TTITLE2=tristeza do jeca
TTITLE3=vou toma um pingao
TTITLE4=burro picaco
TTITLE5=chitaozinho e chororo
TTITLE6=canoeiro apaixonado
TTITLE7=pela estrada
TTITLE8=boi de carro
TTITLE9=linda fazendeira
TTITLE10=pagode em brasilia
TTITLE11=garca branca
TTITLE12=boi penacho
TTITLE13=berrante de ouro
EXTD=
EXTT0=
EXTT1=
EXTT2=
EXTT3=
EXTT4=
EXTT5=
EXTT6=
EXTT7=
EXTT8=
EXTT9=
EXTT10=
EXTT11=
EXTT12=
EXTT13=
PLAYORDER=
